<mxfile host="65bd71144e">
    <diagram id="xBVXsBovoLJ76k9Jkrnq" name="Page-1">
        <mxGraphModel dx="621" dy="357" grid="1" gridSize="10" guides="1" tooltips="1" connect="1" arrows="1" fold="1" page="1" pageScale="1" pageWidth="827" pageHeight="1169" math="0" shadow="0">
            <root>
                <mxCell id="0"/>
                <mxCell id="1" parent="0"/>
                <mxCell id="wS33t3uRdzZzpdna4zLd-3" value="" style="edgeStyle=none;html=1;" edge="1" parent="1" source="wS33t3uRdzZzpdna4zLd-1" target="wS33t3uRdzZzpdna4zLd-2">
                    <mxGeometry relative="1" as="geometry"/>
                </mxCell>
                <mxCell id="wS33t3uRdzZzpdna4zLd-1" value="START" style="ellipse;whiteSpace=wrap;html=1;" vertex="1" parent="1">
                    <mxGeometry x="240" y="20" width="120" height="80" as="geometry"/>
                </mxCell>
                <mxCell id="wS33t3uRdzZzpdna4zLd-5" value="" style="edgeStyle=none;html=1;" edge="1" parent="1" source="wS33t3uRdzZzpdna4zLd-2">
                    <mxGeometry relative="1" as="geometry">
                        <mxPoint x="300" y="260" as="targetPoint"/>
                    </mxGeometry>
                </mxCell>
                <mxCell id="wS33t3uRdzZzpdna4zLd-2" value="CreateArray [10]=new.Random().Next(1;10)&lt;br&gt;for (int i=0; i&amp;lt;CreateArray.Length; i++)" style="shape=parallelogram;perimeter=parallelogramPerimeter;whiteSpace=wrap;html=1;fixedSize=1;" vertex="1" parent="1">
                    <mxGeometry x="125" y="150" width="350" height="60" as="geometry"/>
                </mxCell>
                <mxCell id="wS33t3uRdzZzpdna4zLd-10" value="" style="edgeStyle=none;html=1;" edge="1" parent="1" source="wS33t3uRdzZzpdna4zLd-6" target="wS33t3uRdzZzpdna4zLd-9">
                    <mxGeometry relative="1" as="geometry"/>
                </mxCell>
                <mxCell id="wS33t3uRdzZzpdna4zLd-6" value="&amp;nbsp;Исходный массив:" style="rounded=1;whiteSpace=wrap;html=1;" vertex="1" parent="1">
                    <mxGeometry x="180" y="260" width="240" height="40" as="geometry"/>
                </mxCell>
                <mxCell id="wS33t3uRdzZzpdna4zLd-12" value="" style="edgeStyle=none;html=1;" edge="1" parent="1" source="wS33t3uRdzZzpdna4zLd-9">
                    <mxGeometry relative="1" as="geometry">
                        <mxPoint x="300" y="440" as="targetPoint"/>
                    </mxGeometry>
                </mxCell>
                <mxCell id="wS33t3uRdzZzpdna4zLd-9" value="for (i=0; &lt;br&gt;i&amp;lt;CreateArray[i].Length;&lt;br&gt;i++)" style="shape=hexagon;perimeter=hexagonPerimeter2;whiteSpace=wrap;html=1;fixedSize=1;" vertex="1" parent="1">
                    <mxGeometry x="190" y="330" width="220" height="70" as="geometry"/>
                </mxCell>
                <mxCell id="wS33t3uRdzZzpdna4zLd-15" value="" style="edgeStyle=none;html=1;exitX=0;exitY=0.5;exitDx=0;exitDy=0;entryX=0;entryY=0.5;entryDx=0;entryDy=0;" edge="1" parent="1" source="wS33t3uRdzZzpdna4zLd-11" target="wS33t3uRdzZzpdna4zLd-9">
                    <mxGeometry relative="1" as="geometry">
                        <mxPoint x="70" y="480" as="targetPoint"/>
                        <Array as="points">
                            <mxPoint x="110" y="480"/>
                            <mxPoint x="110" y="365"/>
                        </Array>
                    </mxGeometry>
                </mxCell>
                <mxCell id="wS33t3uRdzZzpdna4zLd-21" value="" style="edgeStyle=none;html=1;entryX=1;entryY=0.5;entryDx=0;entryDy=0;exitX=1;exitY=0.5;exitDx=0;exitDy=0;" edge="1" parent="1" source="wS33t3uRdzZzpdna4zLd-11" target="wS33t3uRdzZzpdna4zLd-17">
                    <mxGeometry relative="1" as="geometry">
                        <mxPoint x="590" y="480" as="targetPoint"/>
                        <Array as="points">
                            <mxPoint x="500" y="480"/>
                            <mxPoint x="500" y="573"/>
                        </Array>
                    </mxGeometry>
                </mxCell>
                <mxCell id="wS33t3uRdzZzpdna4zLd-11" value="if CreateArray[i]%==0" style="rhombus;whiteSpace=wrap;html=1;" vertex="1" parent="1">
                    <mxGeometry x="175" y="440" width="250" height="80" as="geometry"/>
                </mxCell>
                <mxCell id="wS33t3uRdzZzpdna4zLd-16" value="NO" style="text;html=1;align=center;verticalAlign=middle;resizable=0;points=[];autosize=1;strokeColor=none;" vertex="1" parent="1">
                    <mxGeometry x="135" y="460" width="30" height="20" as="geometry"/>
                </mxCell>
                <mxCell id="wS33t3uRdzZzpdna4zLd-23" value="" style="edgeStyle=none;html=1;" edge="1" parent="1" source="wS33t3uRdzZzpdna4zLd-17">
                    <mxGeometry relative="1" as="geometry">
                        <mxPoint x="300" y="640" as="targetPoint"/>
                    </mxGeometry>
                </mxCell>
                <mxCell id="wS33t3uRdzZzpdna4zLd-17" value="Массив из четных чисел:" style="rounded=1;whiteSpace=wrap;html=1;" vertex="1" parent="1">
                    <mxGeometry x="190" y="555" width="220" height="35" as="geometry"/>
                </mxCell>
                <mxCell id="wS33t3uRdzZzpdna4zLd-22" value="Finish" style="ellipse;whiteSpace=wrap;html=1;rounded=1;" vertex="1" parent="1">
                    <mxGeometry x="240" y="640" width="120" height="42.5" as="geometry"/>
                </mxCell>
            </root>
        </mxGraphModel>
    </diagram>
</mxfile>